<svg width="118" height="55" viewBox="0 0 118 55" fill="none" xmlns="http://www.w3.org/2000/svg">
<path d="M63.5734 43.2864L59.8953 44.0076C59.6789 43.3826 59.4986 42.7335 59.3544 42.0604C58.0082 43.1903 56.4456 43.7552 54.6666 43.7552C52.0223 43.7552 50.0029 42.9499 48.6086 41.3392C47.2384 39.7045 46.5532 37.6131 46.5532 35.0648C46.5532 32.0599 47.3706 29.704 49.0053 27.9971C50.664 26.2663 53.2723 25.4008 56.8302 25.4008C58.5851 25.4008 60.6766 25.7494 63.1046 26.4466V37.9857C63.1046 39.8608 63.2609 41.6277 63.5734 43.2864ZM55.2797 40.3296C56.8903 40.3296 58.1524 39.6324 59.0659 38.2381V38.1299V29.3674C57.9601 29.127 57.0225 29.0068 56.2533 29.0068C52.5511 29.0068 50.7001 30.9661 50.7001 34.8845C50.7001 36.5192 51.1208 37.8414 51.9622 38.8511C52.8036 39.8367 53.9094 40.3296 55.2797 40.3296Z" fill="white"/>
<path d="M65.162 25.7614H69.4891L73.7802 38.8511L74.3211 38.815L78.6483 25.7614H82.6509L76.2684 43.5389H71.5806L65.162 25.7614Z" fill="white"/>
<path d="M91.9569 40.582C93.5916 40.606 95.3344 40.2935 97.1855 39.6444L97.9428 42.4571C95.8513 43.3465 93.7839 43.7913 91.7405 43.7913C89.048 43.7913 86.9566 42.998 85.4661 41.4113C83.9997 39.8007 83.2665 37.6611 83.2665 34.9927C83.2665 33.7427 83.4107 32.5767 83.6992 31.4949C84.0117 30.4131 84.4805 29.4155 85.1055 28.502C85.7306 27.5644 86.608 26.8312 87.7379 26.3023C88.8677 25.7735 90.1899 25.509 91.7044 25.509C94.0603 25.509 95.8513 26.0499 97.0773 27.1317C98.3274 28.1895 98.9524 29.5838 98.9524 31.3146C98.9524 32.5887 98.6399 33.5624 98.0149 34.2355C97.4139 34.9086 96.26 35.4254 94.5532 35.786C92.8704 36.1466 90.4303 36.3269 87.233 36.3269C87.4013 37.7934 87.8581 38.8631 88.6033 39.5362C89.3726 40.2094 90.4904 40.5579 91.9569 40.582ZM91.8487 28.502C89.0601 28.502 87.5095 30.1126 87.197 33.334C90.2741 33.334 92.3896 33.1657 93.5435 32.8291C94.7214 32.4685 95.3104 31.8435 95.3104 30.954C95.3104 30.2809 94.9979 29.704 94.3729 29.2232C93.7478 28.7424 92.9064 28.502 91.8487 28.502Z" fill="white"/>
<path d="M117.833 43.2864L114.155 44.0076C113.939 43.3826 113.759 42.7335 113.614 42.0604C112.268 43.1903 110.706 43.7552 108.927 43.7552C106.282 43.7552 104.263 42.9499 102.869 41.3392C101.498 39.7045 100.813 37.6131 100.813 35.0648C100.813 32.0599 101.631 29.704 103.265 27.9971C104.924 26.2663 107.532 25.4008 111.09 25.4008C112.845 25.4008 114.937 25.7494 117.365 26.4466V37.9857C117.365 39.8608 117.521 41.6277 117.833 43.2864ZM109.54 40.3296C111.15 40.3296 112.412 39.6324 113.326 38.2381V38.1299V29.3674C112.22 29.127 111.282 29.0068 110.513 29.0068C106.811 29.0068 104.96 30.9661 104.96 34.8845C104.96 36.5192 105.381 37.8414 106.222 38.8511C107.064 39.8367 108.169 40.3296 109.54 40.3296Z" fill="white"/>
<path fill-rule="evenodd" clip-rule="evenodd" d="M36.0597 9.26547C36.4396 9.26547 36.8141 9.28898 37.1817 9.33462V15.3356C37.1817 16.4025 38.0466 17.2673 39.1135 17.2673H45.0183C45.0555 17.5999 45.0746 17.9379 45.0746 18.2804V45.3252C45.0746 50.304 41.0385 54.3401 36.0597 54.3401H9.01491C4.0361 54.3401 0 50.3039 0 45.3251V18.2804C0 13.3016 4.03612 9.26547 9.01492 9.26547H36.0597ZM42.4991 40.618C42.4751 39.5603 42.463 38.827 42.463 38.4184V26.8071C39.9389 25.8696 37.5349 25.4008 35.2511 25.4008C32.0538 25.4008 29.6979 26.2663 28.1834 27.9971C26.6929 29.7039 25.9477 32.0598 25.9477 35.0648C25.9477 37.5169 26.6208 39.5482 27.967 41.1589C29.3373 42.7696 31.2845 43.5749 33.8087 43.5749C35.5396 43.5749 37.1022 43.034 38.4965 41.9522C38.5205 42.2888 38.5325 42.7335 38.5325 43.2864C38.5325 44.4403 38.1479 45.3779 37.3786 46.0991C36.6334 46.8443 35.5276 47.2169 34.0611 47.2169C32.3303 47.2169 30.5633 46.9405 28.7604 46.3876L27.8949 49.5247C30.2268 50.3661 32.2822 50.7868 34.0611 50.7868C36.5613 50.7868 38.6047 50.1618 40.1913 48.9117C41.7779 47.6617 42.5712 45.7745 42.5712 43.2504C42.5712 42.5292 42.5472 41.6517 42.4991 40.618ZM38.4244 38.3462C37.5589 39.5002 36.2968 40.0771 34.6381 40.0771C33.2919 40.0771 32.1981 39.5963 31.3567 38.6347C30.5153 37.6491 30.0946 36.399 30.0946 34.8845C30.0946 33.1296 30.4912 31.7233 31.2845 30.6655C32.1019 29.5837 33.376 29.0429 35.1069 29.0429C36.2608 29.0429 37.3666 29.2592 38.4244 29.6919V38.3462Z" fill="white"/>
<path d="M38.9111 9.37714C38.9111 8.7404 39.4273 8.22421 40.0641 8.22421H45.2522C45.889 8.22421 46.4052 8.7404 46.4052 9.37714V14.5653C46.4052 15.2021 45.889 15.7182 45.2522 15.7182H40.0641C39.4273 15.7182 38.9111 15.2021 38.9111 14.5653V9.37714Z" fill="white"/>
<path d="M42.0815 1.37214C42.0815 0.894585 42.4687 0.507446 42.9462 0.507446H47.4074C47.8849 0.507446 48.2721 0.894584 48.2721 1.37214V5.83327C48.2721 6.31083 47.8849 6.69796 47.4074 6.69796H42.9462C42.4687 6.69796 42.0815 6.31083 42.0815 5.83327V1.37214Z" fill="white"/>
<path d="M36.3169 2.66885C36.3169 2.27089 36.6395 1.94827 37.0375 1.94827H39.684C40.082 1.94827 40.4046 2.27089 40.4046 2.66885V5.31541C40.4046 5.71338 40.082 6.03599 39.684 6.03599H37.0375C36.6395 6.03599 36.3169 5.71338 36.3169 5.31541V2.66885Z" fill="white"/>
<path d="M48.1348 8.63705C48.1348 8.28635 48.4191 8.00204 48.7698 8.00204H51.535C51.8857 8.00204 52.17 8.28635 52.17 8.63705V11.4023C52.17 11.753 51.8857 12.0373 51.535 12.0373H48.7698C48.4191 12.0373 48.1348 11.753 48.1348 11.4023V8.63705Z" fill="white"/>
<path d="M49.5757 0.576464C49.5757 0.258092 49.8338 0 50.1521 0H52.1698C52.4881 0 52.7462 0.258092 52.7462 0.576464V2.59409C52.7462 2.91246 52.4881 3.17055 52.1698 3.17055H50.1521C49.8338 3.17055 49.5757 2.91246 49.5757 2.59409V0.576464Z" fill="#FF6900"/>
</svg>
